HIERARCHY
ROOT Hips
{
	OFFSET 0.00 0.00 0.00
	CHANNELS 6 Xposition Yposition Zposition Xrotation Yrotation Zrotation
	JOINT LeftUpLeg
	{
		OFFSET 3.10215 0.00000 0.00000
		CHANNELS 3 Xrotation Yrotation Zrotation
		JOINT LeftLeg
		{
			OFFSET 0.00000 -16.83331 0.00000
			CHANNELS 3 Xrotation Yrotation Zrotation
			JOINT LeftFoot
			{
				OFFSET 0.00000 -15.53879 0.00000
				CHANNELS 3 Xrotation Yrotation Zrotation
				JOINT LeftToeBase
				{
					OFFSET 0.00000 -1.57366 5.87297
					CHANNELS 3 Xrotation Yrotation Zrotation
					End Site
					{
						OFFSET 0.00000 0.00000 2.95275
					}
				}
			}
		}
	}
	JOINT RightUpLeg
	{
		OFFSET -3.10215 0.00000 0.00000
		CHANNELS 3 Xrotation Yrotation Zrotation
		JOINT RightLeg
		{
			OFFSET 0.00000 -16.83331 0.00000
			CHANNELS 3 Xrotation Yrotation Zrotation
			JOINT RightFoot
			{
				OFFSET 0.00000 -15.53879 0.00000
				CHANNELS 3 Xrotation Yrotation Zrotation
				JOINT RightToeBase
				{
					OFFSET 0.00000 -1.57366 5.87297
					CHANNELS 3 Xrotation Yrotation Zrotation
					End Site
					{
						OFFSET 0.00000 0.00000 2.95275
					}
				}
			}
		}
	}
	JOINT Spine
	{
		OFFSET 0.00000 0.03937 0.00000
		CHANNELS 3 Xrotation Yrotation Zrotation
		JOINT Spine1
		{
			OFFSET 0.00000 8.31046 0.00000
			CHANNELS 3 Xrotation Yrotation Zrotation
			JOINT Neck
			{
				OFFSET 0.00000 6.25463 0.00000
				CHANNELS 3 Xrotation Yrotation Zrotation
				JOINT Head
				{
					OFFSET 0.00000 8.60817 0.00000
					CHANNELS 3 Xrotation Yrotation Zrotation
					End Site
					{
						OFFSET 0.00000 4.52755 0.00000
					}
				}
			}
			JOINT LeftShoulder
			{
				OFFSET 0.00000 6.25463 0.00000
				CHANNELS 3 Xrotation Yrotation Zrotation
				JOINT LeftArm
				{
					OFFSET 7.44857 -0.00003 0.00000
					CHANNELS 3 Xrotation Yrotation Zrotation
					JOINT LeftForeArm
					{
						OFFSET 10.73545 -0.00004 0.00000
						CHANNELS 3 Xrotation Yrotation Zrotation
						JOINT LeftHand
						{
							OFFSET 10.15840 -0.00004 0.00000
							CHANNELS 3 Xrotation Yrotation Zrotation
							JOINT LeftHandThumb
							{
								OFFSET 0.00000 0.00000 0.00000
								CHANNELS 3 Xrotation Yrotation Zrotation
								End Site
								{
									OFFSET 0.00000 0.00000 3.93700
								}
							}
							JOINT L_Wrist_End
							{
								OFFSET 3.93700 -0.00001 0.00000
								CHANNELS 3 Xrotation Yrotation Zrotation
							}
						}
					}
				}
			}
			JOINT RightShoulder
			{
				OFFSET 0.00000 6.25463 0.00000
				CHANNELS 3 Xrotation Yrotation Zrotation
				JOINT RightArm
				{
					OFFSET -7.44857 -0.00003 0.00000
					CHANNELS 3 Xrotation Yrotation Zrotation
					JOINT RightForeArm
					{
						OFFSET -10.73545 -0.00004 0.00000
						CHANNELS 3 Xrotation Yrotation Zrotation
						JOINT RightHand
						{
							OFFSET -10.15840 -0.00004 0.00000
							CHANNELS 3 Xrotation Yrotation Zrotation
							JOINT RightHandThumb
							{
								OFFSET 0.00000 0.00000 0.00000
								CHANNELS 3 Xrotation Yrotation Zrotation
								End Site
								{
									OFFSET 0.00000 0.00000 3.93700
								}
							}
							JOINT R_Wrist_End
							{
								OFFSET -5.39369 -0.00002 0.00000
								CHANNELS 3 Xrotation Yrotation Zrotation
							}
						}
					}
				}
			}
		}
	}
}
MOTION
Frames: 19
Frame Time: 0.008333
 62.0731 33.7572 -7.0747 54.7173 -80.4562 54.5722 -20.0500 -7.8112 -1.7585 38.7744 0.0000 0.0000 -20.6663 4.0120 -26.8613 -5.2692 0.0000 -0.0000 -39.7169 0.5121 -1.6769 63.6123 -0.0000 0.0000 -18.7883 -4.6839 13.0019 -6.1151 0.0000 0.0000 -2.3320 -0.4731 -1.5757 8.2400 -1.7725 1.1012 28.1554 9.4341 2.3403 -8.5018 -4.4895 -0.4315 15.7929 -9.5176 25.8848 -16.6091 -1.0489 -94.3520 -179.9994 -70.5552 -179.9992 -23.1797 -1.4215 4.2002 0.0000 0.0000 -0.0000 0.0000 0.0000 -0.0000 24.2519 -2.6453 -20.8220 8.8278 11.5952 91.8818 -0.0017 82.7461 0.0015 -32.1157 34.2777 8.5731 -0.0000 -0.0000 -0.0000 -0.0000 -0.0000 -0.0000
 61.5709 33.7724 -7.1464 54.3156 -79.9931 53.4682 -21.5009 -7.7360 -1.0747 42.5345 -0.0000 0.0000 -18.8035 3.6298 -27.1706 -7.2399 -0.0000 0.0000 -39.1216 1.1723 -0.6656 58.7712 -0.0000 0.0000 -17.4325 -4.3623 12.3120 -6.7445 -0.0000 -0.0000 -2.5498 -0.3619 -1.1736 8.4476 -1.5941 1.4452 28.1034 9.1394 2.5486 -9.3532 -4.3929 -0.7248 16.0918 -10.1153 26.4321 -17.1762 -0.0247 -94.4179 -179.9994 -69.7676 -179.9992 -22.6595 -2.4193 5.8214 0.0000 0.0000 -0.0000 0.0000 0.0000 -0.0000 24.2450 -2.8394 -20.9178 9.3929 11.3464 92.6396 -0.0014 81.3415 0.0012 -30.6497 34.3540 6.6765 0.0000 -0.0000 -0.0000 0.0000 -0.0000 -0.0000
 61.0579 33.7916 -7.2290 54.5548 -79.6838 52.7994 -23.2772 -7.3813 -0.0695 46.8925 -0.0000 0.0000 -16.0157 2.7613 -27.4755 -10.2623 -0.0000 -0.0000 -38.1026 2.0342 0.6613 53.5081 -0.0000 0.0000 -15.7268 -3.7826 11.2723 -6.5471 0.0000 -0.0000 -2.6379 -0.1956 -0.5306 8.3644 -1.3967 1.6412 28.2463 8.9554 2.7066 -9.9628 -4.3757 -0.7469 16.3282 -10.3338 26.8042 -17.1312 0.4665 -94.5462 -179.9994 -69.3139 -179.9992 -23.0903 -3.4198 6.6305 -0.0000 0.0000 0.0000 -0.0000 0.0000 0.0000 24.4083 -3.0093 -20.9063 9.5904 11.3291 93.1803 -0.0013 80.5396 0.0011 -30.3640 33.8604 5.8689 0.0000 -0.0000 0.0000 0.0000 -0.0000 0.0000
 60.5181 33.8111 -7.2850 54.8959 -79.5262 52.4722 -25.2066 -7.0687 0.6238 51.4722 -0.0000 0.0000 -12.4981 2.3773 -27.3285 -12.3885 -0.0000 -0.0000 -36.6644 3.1000 1.6585 48.1670 -0.0000 0.0000 -13.9110 -3.2865 10.5264 -6.5175 0.0000 0.0000 -2.8355 -0.0802 0.0597 8.3534 -1.2804 1.6773 28.6178 9.0379 2.7066 -10.4642 -4.5003 -0.7732 16.4600 -10.2285 26.7031 -16.4798 0.5749 -94.4856 -179.9995 -69.0494 -179.9992 -24.1434 -3.5810 6.6715 -0.0000 -0.0000 0.0000 -0.0000 -0.0000 0.0000 24.7053 -2.9079 -20.9276 9.5158 11.3660 93.4557 -0.0013 80.4629 0.0011 -31.7533 33.1102 6.6066 -0.0000 -0.0000 -0.0000 -0.0000 -0.0000 -0.0000
 59.9431 33.8089 -7.3418 55.6616 -79.5924 52.6949 -27.3127 -6.3189 1.4236 56.4115 -0.0000 0.0000 -9.5086 1.9903 -27.2593 -5.9078 -0.0000 0.0000 -34.8109 4.1321 2.5821 42.8606 -0.0000 0.0000 -12.8953 -2.9717 9.7749 -3.5327 0.0000 0.0000 -3.1484 0.0657 0.5031 8.5177 -1.1257 1.7664 28.9859 9.3060 2.5586 -10.6759 -4.7431 -0.7365 16.4391 -9.9202 26.3444 -15.1102 0.3987 -94.4009 -179.9995 -69.0042 -179.9992 -25.1841 -3.4022 5.8743 -0.0000 0.0000 0.0000 -0.0000 0.0000 0.0000 24.7403 -2.6804 -21.0499 9.3789 11.5842 93.5391 -0.0013 80.9849 0.0011 -34.0341 32.5470 8.3794 0.0000 -0.0000 0.0000 0.0000 -0.0000 0.0000
 59.3399 33.7810 -7.3721 56.3642 -79.8828 53.1845 -29.4267 -5.4404 1.9494 61.3354 -0.0000 0.0000 -5.9682 1.5036 -26.9725 -4.8286 -0.0000 -0.0000 -32.9092 4.5792 3.0946 39.4590 -0.0000 0.0000 -12.7044 -2.2021 7.4525 -5.2403 0.0000 0.0000 -3.4358 0.2938 0.7804 8.6930 -0.9169 1.6924 29.4413 9.4763 2.4740 -10.7339 -4.9101 -0.7426 16.7036 -9.4443 25.9737 -13.4575 0.0359 -94.3281 -179.9994 -69.2150 -179.9992 -26.4135 -3.0707 4.2357 -0.0000 0.0000 0.0000 -0.0000 0.0000 0.0000 24.6909 -2.4481 -21.1279 9.0709 12.0028 93.3666 -0.0015 81.9967 0.0013 -36.3523 32.4616 10.0445 -0.0000 0.0000 -0.0000 -0.0000 0.0000 -0.0000
 58.7173 33.7116 -7.3982 56.9134 -80.2041 53.7513 -31.6743 -4.5302 2.2807 66.2918 -0.0000 0.0000 -3.4225 1.2513 -26.6342 -1.9886 0.0000 0.0000 -30.8201 4.5026 3.2958 37.7354 -0.0000 0.0000 -15.3690 -2.2611 6.9455 -0.4820 -0.0000 -0.0000 -3.6777 0.5808 0.8771 8.6599 -0.6618 1.5299 29.9189 9.4684 2.4976 -10.6143 -4.9832 -0.6791 17.0464 -8.9643 25.6766 -11.3167 -0.5092 -94.3117 -179.9994 -69.6397 -179.9992 -23.5616 -1.3460 5.1239 0.0000 0.0000 -0.0000 0.0000 0.0000 -0.0000 24.4202 -2.3585 -21.1754 8.7042 12.5593 93.0737 -0.0018 83.3498 0.0016 -38.3245 32.2692 12.0609 0.0000 -0.0000 -0.0000 0.0000 -0.0000 -0.0000
 58.0945 33.6086 -7.4130 57.3455 -80.5281 54.2861 -33.9739 -3.7912 2.4950 70.7701 -0.0000 0.0000 -0.1489 1.3492 -26.6900 -1.9712 0.0000 0.0000 -28.7352 3.1767 3.1934 37.2610 -0.0000 0.0000 -18.9989 -1.1285 4.9478 1.3859 -0.0000 0.0000 -3.9054 0.8431 0.9073 8.5461 -0.4317 1.3507 30.3301 9.3871 2.5863 -10.3281 -4.9303 -0.6195 17.5204 -8.2713 25.4656 -8.9411 -0.3793 -94.3171 -179.9994 -70.3618 -179.9992 -21.5461 0.9963 -0.1604 0.0000 0.0000 -0.0000 0.0000 0.0000 -0.0000 23.9897 -2.1967 -21.3041 8.1860 13.0581 92.6732 -0.0024 84.9733 0.0022 -39.4311 32.0293 13.6788 0.0000 0.0000 0.0000 0.0000 0.0000 0.0000
 57.4194 33.4892 -7.4926 56.8032 -81.3672 52.9495 -35.7846 -2.8797 3.8869 74.8554 -0.0000 0.0000 3.2997 0.8768 -20.3757 -1.9707 -0.0000 -0.0000 -25.8275 2.2566 4.2569 36.2894 -0.0000 0.0000 -22.3734 -0.3311 2.1075 2.7788 -0.0000 0.0000 -3.9857 1.2682 1.4050 8.7657 0.0087 1.5514 30.6345 9.0153 2.8744 -9.9367 -4.7002 -0.4620 18.1130 -7.6211 25.3626 -6.8117 -2.1092 -94.3395 -179.9994 -71.4910 -179.9991 -22.0302 0.4740 2.1896 -0.0000 0.0000 0.0000 -0.0000 0.0000 0.0000 23.4802 -2.1118 -21.1922 7.4041 13.2765 92.1938 -0.0038 86.7890 0.0035 -39.2105 31.8532 14.5522 0.0000 -0.0000 0.0000 0.0000 -0.0000 0.0000
 56.7732 33.3479 -7.5441 55.8330 -82.3845 51.4320 -36.8411 -2.4764 4.8528 78.0714 -0.0000 0.0000 -0.3460 3.0608 -22.7110 -0.6474 -0.0000 0.0000 -23.0289 1.8051 5.0361 35.1023 -0.0000 0.0000 -24.5917 0.6318 -0.3688 3.9811 -0.0000 0.0000 -3.3827 1.6809 1.7704 8.2941 0.4006 1.6949 30.8847 8.7794 3.0640 -9.4082 -4.5461 -0.2683 18.8752 -6.7273 25.1931 -4.4466 -2.9787 -94.3173 -179.9993 -72.8511 -179.9991 -25.3347 1.2210 -2.9900 -0.0000 -0.0000 -0.0000 -0.0000 -0.0000 -0.0000 23.0805 -2.1310 -21.1102 6.2480 13.5716 91.5367 -0.0088 88.6316 0.0086 -37.9897 32.0607 14.5733 -0.0000 0.0000 -0.0000 -0.0000 0.0000 -0.0000
 56.1871 33.2071 -7.5870 56.9792 -83.4170 52.1312 -38.1858 -1.8932 5.6881 80.5790 -0.0000 0.0000 -3.0508 5.3308 -24.8926 1.3995 -0.0000 -0.0000 -20.9265 1.3230 5.8245 34.1986 0.0000 -0.0000 -26.0463 1.2931 -1.9381 4.8480 -0.0000 0.0000 -2.6924 2.2172 2.0671 7.8339 0.9024 1.7846 30.7133 8.4620 3.2758 -8.6031 -4.3145 -0.0696 19.5438 -5.7121 25.0583 -2.1931 -4.0829 -94.3088 -179.9992 -74.5645 -179.9990 -24.2560 1.9070 -3.4561 0.0000 0.0000 -0.0000 0.0000 0.0000 -0.0000 22.4195 -2.3412 -21.0679 4.6009 13.8023 90.9573 -179.9609 89.6918 179.9607 -36.4981 32.5405 14.3440 0.0000 -0.0000 0.0000 0.0000 -0.0000 0.0000
 55.6768 33.0911 -7.5734 60.9058 -83.8892 56.1167 -40.0863 -1.4838 5.6208 81.9872 0.0000 -0.0000 -3.9708 6.8233 -23.7696 -1.3799 0.0000 -0.0000 -19.8208 0.7838 5.9208 34.2063 -0.0000 0.0000 -27.6132 1.5936 -2.2567 4.7096 -0.0000 0.0000 -2.4152 2.5660 2.0886 7.6854 1.2241 1.7178 30.0746 8.3288 3.3370 -7.7351 -4.0840 0.0906 19.9402 -4.7216 24.7645 0.0664 -5.0290 -94.3200 -179.9991 -76.3944 -179.9989 -22.9756 2.3647 -2.2721 0.0000 -0.0000 -0.0000 0.0000 -0.0000 -0.0000 20.9663 -2.0413 -21.1557 3.2376 13.7871 90.2650 -179.9942 87.9280 179.9940 -34.7250 33.1321 13.0994 0.0000 0.0000 -0.0000 0.0000 0.0000 -0.0000
 55.1564 33.0069 -7.5919 66.1715 -84.9900 61.1059 -41.0093 -1.2215 6.1709 82.5095 -0.0000 0.0000 -5.5960 7.2744 -23.5002 -1.5961 0.0000 -0.0000 -18.4733 1.0702 6.5020 34.6704 -0.0000 0.0000 -28.5464 1.9661 -2.2828 4.9689 0.0000 0.0000 -1.6661 3.1845 2.4740 7.6217 1.7103 1.2930 29.7651 7.7907 3.7125 -7.5527 -3.5630 0.2676 20.7747 -3.9452 24.7982 2.1086 -5.5146 -94.2478 -179.9990 -78.2168 -179.9988 -23.3386 2.9350 -1.6248 -0.0000 0.0000 -0.0000 -0.0000 0.0000 -0.0000 20.8000 -2.4382 -20.8231 -0.0675 13.8076 89.6806 -179.9964 86.6582 179.9962 -33.0810 33.7727 11.3600 -0.0000 0.0000 -0.0000 -0.0000 0.0000 -0.0000
 54.6717 32.9534 -7.5658 69.7062 -85.2103 64.6343 -42.4774 -1.3333 5.8971 82.1146 -0.0000 0.0000 -7.3742 7.3347 -23.6611 -1.4112 -0.0000 0.0000 -17.9957 0.6266 6.5716 35.7766 -0.0000 0.0000 -29.2284 2.0920 -3.2300 3.8241 0.0000 -0.0000 -1.5573 3.4312 2.5472 7.7146 1.9521 1.3037 29.5461 7.5850 3.8167 -7.5990 -3.4637 0.3405 22.0239 -3.2750 24.6736 3.3558 -5.9810 -94.3027 -179.9987 -80.4603 -179.9985 -23.4709 3.4112 0.3689 -0.0000 -0.0000 -0.0000 -0.0000 -0.0000 -0.0000 19.4802 -1.9327 -20.9546 -2.0578 12.5636 89.3298 -179.9974 85.3066 179.9972 -29.9102 36.5382 10.5994 0.0000 0.0000 -0.0000 0.0000 0.0000 -0.0000
 54.2129 32.9605 -7.6151 89.6472 -85.2599 84.1380 -43.8899 -0.8881 7.0997 80.8358 -0.0000 0.0000 -8.7177 6.4480 -24.6581 -1.5485 0.0000 -0.0000 -18.4381 2.6012 7.6848 36.9446 0.0000 -0.0000 -28.5853 1.7709 -3.8901 2.6159 0.0000 0.0000 -2.3399 3.9718 2.9442 8.8187 2.4117 0.7404 29.2851 7.3157 4.1408 -8.1448 -2.5389 0.3621 22.2504 -2.9983 24.9120 5.5592 -5.2413 -94.8135 -179.9983 -82.8875 -179.9981 -23.7519 4.0982 2.2724 0.0000 -0.0000 0.0000 0.0000 -0.0000 0.0000 19.3175 -1.4393 -20.7038 -6.0346 11.8823 88.8956 -179.9979 84.2374 179.9977 -32.8578 35.2956 11.4829 0.0000 -0.0000 0.0000 0.0000 -0.0000 0.0000
 53.7427 32.9805 -7.6021 99.0937 -85.1008 93.6302 -44.8150 -1.0028 7.0965 78.7293 -0.0000 0.0000 -9.1494 5.5609 -26.7582 -1.5164 0.0000 -0.0000 -18.6988 3.4054 7.8102 38.5375 -0.0000 0.0000 -28.0270 2.0232 -3.6912 1.4511 0.0000 -0.0000 -2.8606 4.1551 3.0388 9.5920 2.5609 0.4497 29.4032 7.3139 4.2121 -8.6299 -2.2815 0.2848 22.8958 -3.1382 25.1211 7.3204 -4.6211 -95.4991 -179.9974 -85.4546 -179.9971 -26.2705 4.9212 4.4508 0.0000 -0.0000 -0.0000 0.0000 -0.0000 -0.0000 18.8530 -0.5903 -21.0531 -8.9959 10.2077 88.9502 -179.9983 83.0915 179.9980 -32.8510 35.4586 11.4586 -0.0000 0.0000 -0.0000 -0.0000 0.0000 -0.0000
 53.2729 33.0098 -7.5872 101.2557 -85.1077 95.7523 -45.3543 -1.7205 6.6679 76.2015 -0.0000 0.0000 -8.7843 4.0308 -27.7269 -2.9442 -0.0000 -0.0000 -18.9296 3.3688 7.8314 40.6084 -0.0000 0.0000 -27.5020 2.3949 -3.2409 0.6379 0.0000 0.0000 -2.7328 4.2136 3.1174 9.5627 2.6166 0.4842 29.4880 7.1110 4.3275 -8.5764 -2.2463 0.1709 23.7596 -2.9254 25.2379 8.0603 -4.9520 -95.9138 -179.9931 -88.2543 -179.9929 -29.0499 5.6124 7.3117 0.0000 -0.0000 0.0000 0.0000 -0.0000 0.0000 18.1321 -0.1855 -21.3767 -11.1264 8.5634 89.2316 -179.9985 81.7422 179.9983 -33.2122 35.0712 12.0435 0.0000 0.0000 0.0000 0.0000 0.0000 0.0000
 52.8164 33.0636 -7.4991 107.3015 -84.4603 102.6080 -45.8753 -1.6091 5.6854 72.8256 -0.0000 0.0000 -8.3484 3.2203 -29.3909 -2.6319 0.0000 0.0000 -20.3129 4.1347 7.0699 43.6660 -0.0000 0.0000 -26.0063 2.9863 -3.0009 -2.1656 0.0000 0.0000 -3.4804 4.0993 2.8971 9.9820 2.3928 -0.1655 30.0978 7.5934 4.1490 -9.0068 -2.1565 -0.0996 23.7294 -3.7379 25.5066 10.5519 -3.8408 -97.1682 -0.0437 -89.7243 -0.0435 -32.4603 5.4689 7.9202 -0.0000 -0.0000 -0.0000 -0.0000 -0.0000 -0.0000 18.4261 1.1313 -22.4919 -13.6990 6.4960 89.7891 -179.9987 80.4538 179.9985 -34.3005 35.7623 11.4436 -0.0000 -0.0000 -0.0000 -0.0000 -0.0000 -0.0000
 52.3189 33.1223 -7.4657 109.1470 -84.4265 104.7077 -45.5341 -2.2157 4.9989 69.2810 -0.0000 0.0000 -7.8553 2.2286 -31.0039 -2.7429 0.0000 0.0000 -21.2344 4.1748 6.8621 46.9336 -0.0000 0.0000 -23.9585 3.0962 -2.8647 -4.9062 -0.0000 -0.0000 -3.5622 4.0345 2.7936 9.9682 2.2963 -0.3129 30.5862 7.3482 4.3663 -9.0157 -1.8784 -0.3361 24.1632 -3.9743 25.8147 11.5692 -3.8142 -97.9085 -0.0063 -88.0895 -0.0061 -34.7100 5.1690 9.2161 -0.0000 0.0000 0.0000 -0.0000 0.0000 0.0000 18.0732 1.9696 -23.1177 -14.8219 4.6619 90.2806 -179.9989 78.7308 179.9987 -36.1996 35.8583 11.8389 0.0000 -0.0000 0.0000 0.0000 -0.0000 0.0000
